<?xml version="1.0" encoding="UTF-8" standalone="no"?>
<!-- Created with Inkscape (http://www.inkscape.org/) -->

<svg
   xmlns:dc="http://purl.org/dc/elements/1.1/"
   xmlns:cc="http://creativecommons.org/ns#"
   xmlns:rdf="http://www.w3.org/1999/02/22-rdf-syntax-ns#"
   xmlns:svg="http://www.w3.org/2000/svg"
   xmlns="http://www.w3.org/2000/svg"
   xmlns:sodipodi="http://sodipodi.sourceforge.net/DTD/sodipodi-0.dtd"
   xmlns:inkscape="http://www.inkscape.org/namespaces/inkscape"
   width="210mm"
   height="297mm"
   viewBox="0 0 744.09448819 1052.3622047"
   id="svg2"
   version="1.1"
   inkscape:version="0.91 r13725"
   sodipodi:docname="set2-icon-path.svg">
  <defs
     id="defs4" />
  <sodipodi:namedview
     id="base"
     pagecolor="#ffffff"
     bordercolor="#666666"
     borderopacity="1.0"
     inkscape:pageopacity="0.0"
     inkscape:pageshadow="2"
     inkscape:zoom="0.62"
     inkscape:cx="48.410418"
     inkscape:cy="561.28012"
     inkscape:document-units="px"
     inkscape:current-layer="layer1"
     showgrid="true"
     inkscape:window-width="1470"
     inkscape:window-height="904"
     inkscape:window-x="392"
     inkscape:window-y="50"
     inkscape:window-maximized="0">
    <inkscape:grid
       type="xygrid"
       id="grid4206" />
  </sodipodi:namedview>
  <metadata
     id="metadata7">
    <rdf:RDF>
      <cc:Work
         rdf:about="">
        <dc:format>image/svg+xml</dc:format>
        <dc:type
           rdf:resource="http://purl.org/dc/dcmitype/StillImage" />
        <dc:title></dc:title>
      </cc:Work>
    </rdf:RDF>
  </metadata>
  <g
     inkscape:label="Layer 1"
     inkscape:groupmode="layer"
     id="layer1">
    <path
       style="fill:none;fill-rule:evenodd;stroke:#000064;stroke-width:40;stroke-linecap:butt;stroke-linejoin:miter;stroke-miterlimit:4;stroke-dasharray:none;stroke-opacity:1"
       d="M 115.98006,515.3311 C 282,384.3622 462,384.3622 628.9385,516.12044"
       id="path4187"
       inkscape:connector-curvature="0"
       sodipodi:nodetypes="cc"
       inkscape:export-xdpi="129.9375"
       inkscape:export-ydpi="129.9375" />
    <path
       style="fill:#000064;fill-opacity:1;fill-rule:evenodd;stroke:#000064;stroke-width:40;stroke-linecap:butt;stroke-linejoin:miter;stroke-miterlimit:4;stroke-dasharray:none;stroke-opacity:1"
       d="M 601.99287,412.48684 C 522.44392,530.69797 522.44392,530.69797 522.44392,530.69797"
       id="path4189-6"
       inkscape:connector-curvature="0"
       inkscape:export-xdpi="129.9375"
       inkscape:export-ydpi="129.9375" />
    <path
       style="fill:#000064;fill-opacity:1;fill-rule:evenodd;stroke:#000064;stroke-width:40;stroke-linecap:butt;stroke-linejoin:miter;stroke-miterlimit:4;stroke-dasharray:none;stroke-opacity:1"
       d="m 625.20715,459.10578 c -50.0891,71.90762 -50.0891,71.90762 -50.0891,71.90762"
       id="path4189-6-2"
       inkscape:connector-curvature="0"
       inkscape:export-xdpi="129.9375"
       inkscape:export-ydpi="129.9375" />
    <g
       transform="matrix(1.7447814,0,0,1.7447814,-175.05844,-359.52723)"
       style="font-style:normal;font-variant:normal;font-weight:normal;font-stretch:normal;font-size:90px;line-height:125%;font-family:Arial;-inkscape-font-specification:Arial;letter-spacing:0px;word-spacing:0px;fill:#000064;fill-opacity:1;stroke:none;stroke-width:1px;stroke-linecap:butt;stroke-linejoin:miter;stroke-opacity:1"
       id="flowRoot4276">
      <path
         d="m 214.04297,590.22996 8.04199,-0.70312 q 0.57129,4.83398 2.63672,7.9541 2.10937,3.07617 6.50391,5.00977 4.39453,1.88965 9.88769,1.88965 4.87793,0 8.61328,-1.4502 3.73535,-1.4502 5.53711,-3.95508 1.8457,-2.54883 1.8457,-5.53711 0,-3.03222 -1.75781,-5.27343 -1.75781,-2.28516 -5.80078,-3.82325 -2.59277,-1.01074 -11.46973,-3.12011 -8.87695,-2.15332 -12.43652,-4.04297 -4.61426,-2.417 -6.89941,-5.97657 -2.24121,-3.60351 -2.24121,-8.04199 0,-4.87793 2.76855,-9.09668 2.76856,-4.26269 8.08594,-6.45996 5.31738,-2.19726 11.82129,-2.19726 7.16308,0 12.6123,2.3291 5.49317,2.28515 8.4375,6.76758 2.94434,4.48242 3.16406,10.15136 l -8.17382,0.61524 q -0.65918,-6.1084 -4.48243,-9.22852 -3.77929,-3.12012 -11.20605,-3.12012 -7.73438,0 -11.29395,2.85645 -3.51562,2.8125 -3.51562,6.81152 0,3.47168 2.50488,5.71289 2.46094,2.24121 12.83203,4.61426 10.41504,2.3291 14.28223,4.08692 5.625,2.59277 8.30566,6.59179 2.68067,3.95508 2.68067,9.14063 0,5.1416 -2.94434,9.71191 -2.94433,4.52637 -8.48144,7.0752 -5.49317,2.50488 -12.39258,2.50488 -8.74512,0 -14.67774,-2.54883 -5.88867,-2.54883 -9.27246,-7.64648 -3.33984,-5.1416 -3.51562,-11.60157 z"
         style=""
         id="path4753" />
      <path
         d="m 307.99805,595.89891 8.17382,1.01074 q -1.93359,7.16309 -7.16308,11.11817 -5.22949,3.95507 -13.35938,3.95507 -10.23925,0 -16.25976,-6.28418 -5.97656,-6.32812 -5.97656,-17.70996 0,-11.77734 6.06445,-18.28125 6.06445,-6.5039 15.73242,-6.5039 9.36035,0 15.29297,6.37207 5.93262,6.37207 5.93262,17.92969 0,0.70312 -0.0439,2.10937 l -34.80469,0 q 0.43946,7.69043 4.35059,11.77734 3.91113,4.08692 9.75586,4.08692 4.35059,0 7.42676,-2.28516 3.07617,-2.28515 4.87793,-7.29492 z m -25.97168,-12.78809 26.05957,0 q -0.52735,-5.88867 -2.98828,-8.833 -3.7793,-4.57032 -9.79981,-4.57032 -5.44922,0 -9.18457,3.64746 -3.69141,3.64747 -4.08691,9.75586 z"
         style=""
         id="path4755" />
      <path
         d="m 343.41797,603.85301 1.14258,6.98731 q -3.33985,0.70312 -5.97657,0.70312 -4.30664,0 -6.67968,-1.3623 -2.37305,-1.36231 -3.33985,-3.55957 -0.96679,-2.24121 -0.96679,-9.36036 l 0,-26.85058 -5.80079,0 0,-6.15234 5.80079,0 0,-11.55762 7.86621,-4.7461 0,16.30372 7.9541,0 0,6.15234 -7.9541,0 0,27.29004 q 0,3.38379 0.3955,4.35058 0.43946,0.9668 1.36231,1.53809 0.9668,0.57129 2.72461,0.57129 1.31836,0 3.47168,-0.30762 z"
         style=""
         id="path4757" />
      <path
         d="m 415.44434,603.32567 0,7.60254 -42.58301,0 q -0.0879,-2.85645 0.92285,-5.49317 1.62598,-4.35058 5.18555,-8.56933 3.60351,-4.21875 10.37109,-9.75586 10.50293,-8.61328 14.19434,-13.62305 3.6914,-5.05371 3.6914,-9.53613 0,-4.70215 -3.38379,-7.91016 -3.33984,-3.25195 -8.74511,-3.25195 -5.71289,0 -9.14063,3.42773 -3.42773,3.42774 -3.47168,9.49219 l -8.12988,-0.83496 q 0.83496,-9.09668 6.28418,-13.84277 5.44922,-4.79004 14.63379,-4.79004 9.27246,0 14.67773,5.1416 5.40528,5.1416 5.40528,12.74414 0,3.86719 -1.58204,7.60254 -1.58203,3.73535 -5.27343,7.86621 -3.64746,4.13086 -12.17286,11.33789 -7.11914,5.97656 -9.14062,8.12988 -2.02148,2.10938 -3.33984,4.2627 l 31.59668,0 z"
         style=""
         id="path4759" />
    </g>
    <path
       style="fill:#000064;fill-opacity:1;fill-rule:evenodd;stroke:#000064;stroke-width:40;stroke-linecap:butt;stroke-linejoin:miter;stroke-miterlimit:4;stroke-dasharray:none;stroke-opacity:1"
       d="M 220.81533,532.0729 C 141.26638,413.86178 141.26638,413.86178 141.26638,413.86178"
       id="path4189-6-25"
       inkscape:connector-curvature="0"
       inkscape:export-xdpi="129.9375"
       inkscape:export-ydpi="129.9375" />
    <path
       style="fill:#000064;fill-opacity:1;fill-rule:evenodd;stroke:#000064;stroke-width:40;stroke-linecap:butt;stroke-linejoin:miter;stroke-miterlimit:4;stroke-dasharray:none;stroke-opacity:1"
       d="m 168.46864,530.58458 c -50.0891,-71.90762 -50.0891,-71.90762 -50.0891,-71.90762"
       id="path4189-6-2-9"
       inkscape:connector-curvature="0"
       inkscape:export-xdpi="129.9375"
       inkscape:export-ydpi="129.9375" />
    <circle
       style="fill:none;fill-opacity:1;stroke:#000064;stroke-width:40;stroke-miterlimit:4;stroke-dasharray:none;stroke-opacity:1"
       id="path5919"
       cx="372.4762"
       cy="521.28284"
       r="300"
       inkscape:export-xdpi="129.9375"
       inkscape:export-ydpi="129.9375" />
  </g>
</svg>
