<?xml version="1.0" encoding="UTF-8" standalone="no"?>
<!-- Created with Inkscape (http://www.inkscape.org/) -->

<svg
   xmlns:dc="http://purl.org/dc/elements/1.1/"
   xmlns:cc="http://creativecommons.org/ns#"
   xmlns:rdf="http://www.w3.org/1999/02/22-rdf-syntax-ns#"
   xmlns:svg="http://www.w3.org/2000/svg"
   xmlns="http://www.w3.org/2000/svg"
   xmlns:sodipodi="http://sodipodi.sourceforge.net/DTD/sodipodi-0.dtd"
   xmlns:inkscape="http://www.inkscape.org/namespaces/inkscape"
   width="210mm"
   height="297mm"
   viewBox="0 0 744.09448819 1052.3622047"
   id="svg2"
   version="1.1"
   inkscape:version="0.91 r13725"
   sodipodi:docname="set2-splash-path.svg"
   inkscape:export-filename="D:\dev\set2-extras\set2-splash.png"
   inkscape:export-xdpi="380.85434"
   inkscape:export-ydpi="380.85434">
  <defs
     id="defs4" />
  <sodipodi:namedview
     id="base"
     pagecolor="#ffffff"
     bordercolor="#666666"
     borderopacity="1.0"
     inkscape:pageopacity="0.0"
     inkscape:pageshadow="2"
     inkscape:zoom="0.71"
     inkscape:cx="312.88141"
     inkscape:cy="563.15652"
     inkscape:document-units="px"
     inkscape:current-layer="layer1"
     showgrid="true"
     inkscape:window-width="1470"
     inkscape:window-height="953"
     inkscape:window-x="120"
     inkscape:window-y="37"
     inkscape:window-maximized="1">
    <inkscape:grid
       type="xygrid"
       id="grid4206" />
  </sodipodi:namedview>
  <metadata
     id="metadata7">
    <rdf:RDF>
      <cc:Work
         rdf:about="">
        <dc:format>image/svg+xml</dc:format>
        <dc:type
           rdf:resource="http://purl.org/dc/dcmitype/StillImage" />
        <dc:title></dc:title>
      </cc:Work>
    </rdf:RDF>
  </metadata>
  <g
     inkscape:label="Layer 1"
     inkscape:groupmode="layer"
     id="layer1">
    <path
       style="fill:none;fill-rule:evenodd;stroke:#000064;stroke-width:40;stroke-linecap:butt;stroke-linejoin:miter;stroke-miterlimit:4;stroke-dasharray:none;stroke-opacity:1"
       d="M 115.98006,481.3311 C 282,350.3622 462,350.3622 628.9385,482.12044"
       id="path4187"
       inkscape:connector-curvature="0"
       sodipodi:nodetypes="cc"
       inkscape:export-xdpi="211.80382"
       inkscape:export-ydpi="211.80382" />
    <path
       style="fill:#000064;fill-opacity:1;fill-rule:evenodd;stroke:#000064;stroke-width:40;stroke-linecap:butt;stroke-linejoin:miter;stroke-miterlimit:4;stroke-dasharray:none;stroke-opacity:1"
       d="M 601.99287,378.48684 C 522.44392,496.69797 522.44392,496.69797 522.44392,496.69797"
       id="path4189-6"
       inkscape:connector-curvature="0"
       inkscape:export-xdpi="211.80382"
       inkscape:export-ydpi="211.80382" />
    <path
       style="fill:#000064;fill-opacity:1;fill-rule:evenodd;stroke:#000064;stroke-width:40;stroke-linecap:butt;stroke-linejoin:miter;stroke-miterlimit:4;stroke-dasharray:none;stroke-opacity:1"
       d="m 625.20715,425.10578 c -50.0891,71.90762 -50.0891,71.90762 -50.0891,71.90762"
       id="path4189-6-2"
       inkscape:connector-curvature="0"
       inkscape:export-xdpi="211.80382"
       inkscape:export-ydpi="211.80382" />
    <g
       transform="matrix(1.2244535,0,0,1.2244535,-87.517431,-144.2016)"
       style="font-style:normal;font-variant:normal;font-weight:normal;font-stretch:normal;font-size:157.03031921px;line-height:125%;font-family:Arial;-inkscape-font-specification:Arial;letter-spacing:0px;word-spacing:0px;fill:#000064;fill-opacity:1;stroke:none;stroke-width:1px;stroke-linecap:butt;stroke-linejoin:miter;stroke-opacity:1"
       id="flowRoot4276">
      <path
         d="m 198.3998,628.29679 14.03152,-1.2268 q 0.99677,8.43425 4.60049,13.87817 3.6804,5.36725 11.3479,8.74094 7.6675,3.29703 17.25187,3.29703 8.51092,0 15.02829,-2.53028 6.51737,-2.53027 9.66104,-6.90074 3.22035,-4.44715 3.22035,-9.66105 0,-5.29057 -3.067,-9.20099 -3.067,-3.9871 -10.12109,-6.67073 -4.52383,-1.76352 -20.01217,-5.44392 -15.48834,-3.75707 -21.69901,-7.05409 -8.05087,-4.21713 -12.03797,-10.4278 -3.91042,-6.28735 -3.91042,-14.03152 0,-8.51092 4.83052,-15.87171 4.83052,-7.43747 14.10819,-11.27122 9.27767,-3.83375 20.62557,-3.83375 12.49802,0 22.00571,4.06377 9.58437,3.9871 14.72159,11.80795 5.13723,7.82084 5.5206,17.71191 l -14.26154,1.07345 q -1.15013,-10.65782 -7.82085,-16.10174 -6.59405,-5.44392 -19.55211,-5.44392 -13.4948,0 -19.70547,4.98387 -6.134,4.9072 -6.134,11.88462 0,6.05732 4.37048,9.96774 4.2938,3.91043 22.38909,8.05087 18.17196,4.06378 24.91936,7.13078 9.81439,4.52382 14.49157,11.50124 4.67717,6.90075 4.67717,15.94839 0,8.97097 -5.13722,16.94517 -5.13723,7.89752 -14.79827,12.34467 -9.58437,4.37047 -21.62234,4.37047 -15.25832,0 -25.60944,-4.44715 -10.27444,-4.44715 -16.17841,-13.34144 -5.8273,-8.97097 -6.134,-20.24219 z"
         style=""
         id="path4154" />
      <path
         d="m 362.33087,638.18786 14.26154,1.76352 q -3.3737,12.49802 -12.49802,19.39877 -9.12432,6.90074 -23.30919,6.90074 -17.86526,0 -28.36973,-10.96451 -10.4278,-11.0412 -10.4278,-30.90001 0,-20.54889 10.58115,-31.89679 10.58114,-11.34789 27.44964,-11.34789 16.33176,0 26.68288,11.11787 10.35112,11.11787 10.35112,31.28338 0,1.2268 -0.0767,3.6804 l -60.72657,0 q 0.76675,13.41812 7.59082,20.54889 6.82407,7.13077 17.02184,7.13077 7.59082,0 12.95807,-3.9871 5.36725,-3.9871 8.51092,-12.72804 z m -45.3149,-22.31241 45.46825,0 q -0.9201,-10.27445 -5.2139,-15.41167 -6.59405,-7.9742 -17.09851,-7.9742 -9.5077,0 -16.02507,6.36402 -6.4407,6.36403 -7.13077,17.02185 z"
         style=""
         id="path4156" />
      <path
         d="m 424.13089,652.06603 1.99355,12.19132 q -5.82729,1.2268 -10.42779,1.2268 -7.51415,0 -11.6546,-2.37693 -4.14044,-2.37692 -5.82729,-6.21067 -1.68685,-3.91042 -1.68685,-16.33177 l 0,-46.8484 -10.1211,0 0,-10.73449 10.1211,0 0,-20.16552 13.72482,-8.28089 0,28.44641 13.87816,0 0,10.73449 -13.87816,0 0,47.61515 q 0,5.90397 0.69007,7.59082 0.76675,1.68685 2.37692,2.68363 1.68685,0.99677 4.75385,0.99677 2.30025,0 6.05732,-0.53672 z"
         style=""
         id="path4158" />
      <path
         d="m 549.80115,651.14593 0,13.26477 -74.29803,0 q -0.15335,-4.98388 1.61017,-9.58437 2.83697,-7.59083 9.04764,-14.95162 6.28735,-7.3608 18.0953,-17.02184 18.32531,-15.0283 24.76601,-23.76924 6.44069,-8.81762 6.44069,-16.63847 0,-8.20422 -5.90397,-13.80149 -5.82729,-5.67395 -15.25831,-5.67395 -9.96775,0 -15.9484,5.98065 -5.98064,5.98065 -6.05732,16.56179 l -14.18487,-1.45682 q 1.45683,-15.87172 10.96452,-24.15262 9.5077,-8.35757 25.53277,-8.35757 16.17841,0 25.60943,8.97097 9.43102,8.97097 9.43102,22.23574 0,6.7474 -2.7603,13.26477 -2.7603,6.51737 -9.20099,13.72482 -6.36402,7.20745 -21.23897,19.78214 -12.42134,10.42779 -15.94839,14.18487 -3.52705,3.68039 -5.82729,7.43747 l 55.12929,0 z"
         style=""
         id="path4160" />
    </g>
    <g
       style="font-style:normal;font-variant:normal;font-weight:normal;font-stretch:normal;font-size:53.02194977px;line-height:125%;font-family:Arial;-inkscape-font-specification:Arial;letter-spacing:0px;word-spacing:0px;fill:#000064;fill-opacity:1;stroke:none;stroke-width:1px;stroke-linecap:butt;stroke-linejoin:miter;stroke-opacity:1"
       id="text4284">
      <path
         d="m 169.31305,739.99774 0,-37.95419 27.443,0 0,4.47891 -22.42042,0 0,11.62444 20.99649,0 0,4.45301 -20.99649,0 0,12.91893 23.30066,0 0,4.4789 -28.32324,0 z"
         style=""
         id="path4163" />
      <path
         d="m 200.92427,739.99774 10.04518,-14.29107 -9.29438,-13.20371 5.82517,0 4.22001,6.44652 q 1.19092,1.83816 1.91583,3.08086 1.13914,-1.70871 2.09706,-3.02908 l 4.63424,-6.4983 5.56627,0 -9.50149,12.94481 10.2264,14.54997 -5.72161,0 -5.64393,-8.54357 -1.5016,-2.30418 -7.22321,10.84775 -5.64394,0 z"
         style=""
         id="path4165" />
      <path
         d="m 248.94953,731.14349 4.81547,0.59546 q -1.13915,4.22001 -4.22001,6.55008 -3.08087,2.33006 -7.87045,2.33006 -6.03228,0 -9.57916,-3.70221 -3.52099,-3.72811 -3.52099,-10.43352 0,-6.93842 3.57277,-10.77009 3.57277,-3.83166 9.26849,-3.83166 5.51449,0 9.00959,3.754 3.49509,3.75399 3.49509,10.56296 0,0.41424 -0.0259,1.2427 l -20.50459,0 q 0.2589,4.53069 2.56308,6.93842 2.30417,2.40774 5.74749,2.40774 2.56308,0 4.37535,-1.34626 1.81227,-1.34626 2.87375,-4.29768 z m -15.30077,-7.53388 15.35255,0 q -0.31068,-3.46921 -1.7605,-5.20381 -2.22651,-2.69253 -5.77338,-2.69253 -3.21032,0 -5.41094,2.14884 -2.17472,2.14884 -2.40773,5.7475 z"
         style=""
         id="path4167" />
      <path
         d="m 259.59016,739.99774 0,-27.49478 4.19412,0 0,4.16823 q 1.60516,-2.92553 2.95142,-3.85755 1.37215,-0.93203 3.0032,-0.93203 2.35595,0 4.78958,1.5016 l -1.60516,4.32357 q -1.70872,-1.0097 -3.41743,-1.0097 -1.52749,0 -2.7443,0.93203 -1.21681,0.90613 -1.73461,2.53718 -0.77668,2.4854 -0.77668,5.43682 l 0,14.39463 -4.66014,0 z"
         style=""
         id="path4169" />
      <path
         d="m 295.29196,729.92668 4.58246,0.59546 q -0.7508,4.7378 -3.85756,7.43032 -3.08086,2.66663 -7.58566,2.66663 -5.64393,0 -9.08725,-3.67632 -3.41743,-3.70222 -3.41743,-10.58886 0,-4.45302 1.47571,-7.79278 1.4757,-3.33976 4.4789,-4.99669 3.02909,-1.68283 6.57596,-1.68283 4.47891,0 7.32677,2.27829 2.84786,2.25239 3.65044,6.42062 l -4.53069,0.69902 q -0.64724,-2.77019 -2.30418,-4.16823 -1.63104,-1.39804 -3.96111,-1.39804 -3.52099,0 -5.7216,2.53719 -2.20062,2.51129 -2.20062,7.974 0,5.54038 2.12295,8.05167 2.12295,2.5113 5.54038,2.5113 2.7443,0 4.58246,-1.68283 1.83816,-1.68282 2.33007,-5.17792 z"
         style=""
         id="path4171" />
      <path
         d="m 303.88731,707.40271 0,-5.35916 4.66013,0 0,5.35916 -4.66013,0 z m 0,32.59503 0,-27.49478 4.66013,0 0,27.49478 -4.66013,0 z"
         style=""
         id="path4173" />
      <path
         d="m 313.80303,731.79073 4.60835,-0.72491 q 0.38835,2.77019 2.14884,4.2459 1.78638,1.47571 4.97081,1.47571 3.21031,0 4.76369,-1.29448 1.55338,-1.32037 1.55338,-3.08087 0,-1.57927 -1.37215,-2.4854 -0.95792,-0.62135 -4.76369,-1.57927 -5.12615,-1.29448 -7.11965,-2.22651 -1.96761,-0.95791 -3.0032,-2.61485 -1.00969,-1.68282 -1.00969,-3.70221 0,-1.83817 0.82846,-3.39155 0.85436,-1.57926 2.30418,-2.61485 1.08737,-0.80258 2.95142,-1.34626 1.88994,-0.56957 4.03878,-0.56957 3.2362,0 5.66983,0.93203 2.45951,0.93202 3.62454,2.53718 1.16504,1.57927 1.60516,4.2459 l -4.55657,0.62135 q -0.31068,-2.12295 -1.81228,-3.31387 -1.4757,-1.19093 -4.19412,-1.19093 -3.21031,0 -4.58246,1.06148 -1.37215,1.06147 -1.37215,2.4854 0,0.90614 0.56957,1.63105 0.56957,0.7508 1.78639,1.2427 0.69902,0.2589 4.11645,1.19092 4.94492,1.32037 6.88664,2.17473 1.96761,0.82847 3.08086,2.43363 1.11326,1.60515 1.11326,3.987 0,2.33007 -1.37215,4.40124 -1.34626,2.04528 -3.90934,3.18442 -2.56307,1.11325 -5.79927,1.11325 -5.35915,0 -8.18112,-2.2265 -2.79608,-2.22651 -3.57277,-6.60186 z"
         style=""
         id="path4175" />
      <path
         d="m 360.99982,731.14349 4.81547,0.59546 q -1.13914,4.22001 -4.22,6.55008 -3.08087,2.33006 -7.87045,2.33006 -6.03228,0 -9.57916,-3.70221 -3.52099,-3.72811 -3.52099,-10.43352 0,-6.93842 3.57277,-10.77009 3.57277,-3.83166 9.26848,-3.83166 5.51449,0 9.00959,3.754 3.4951,3.75399 3.4951,10.56296 0,0.41424 -0.0259,1.2427 l -20.50458,0 q 0.2589,4.53069 2.56307,6.93842 2.30418,2.40774 5.7475,2.40774 2.56307,0 4.37535,-1.34626 1.81227,-1.34626 2.87374,-4.29768 z m -15.30076,-7.53388 15.35254,0 q -0.31067,-3.46921 -1.76049,-5.20381 -2.22651,-2.69253 -5.77339,-2.69253 -3.21031,0 -5.41093,2.14884 -2.17473,2.14884 -2.40773,5.7475 z"
         style=""
         id="path4177" />
      <path
         d="m 395.7178,739.99774 0,-33.47528 -12.50468,0 0,-4.47891 30.08374,0 0,4.47891 -12.55647,0 0,33.47528 -5.02259,0 z"
         style=""
         id="path4179" />
      <path
         d="m 416.06705,739.99774 0,-27.49478 4.19412,0 0,4.16823 q 1.60516,-2.92553 2.95142,-3.85755 1.37215,-0.93203 3.0032,-0.93203 2.35595,0 4.78958,1.5016 l -1.60516,4.32357 q -1.70872,-1.0097 -3.41743,-1.0097 -1.52749,0 -2.7443,0.93203 -1.21681,0.90613 -1.73461,2.53718 -0.77668,2.4854 -0.77668,5.43682 l 0,14.39463 -4.66014,0 z"
         style=""
         id="path4181" />
      <path
         d="m 451.76885,736.6062 q -2.58896,2.20062 -4.99669,3.10676 -2.38185,0.90613 -5.12615,0.90613 -4.53068,0 -6.96431,-2.20062 -2.43362,-2.2265 -2.43362,-5.66982 0,-2.01939 0.90613,-3.67633 0.93203,-1.68283 2.40774,-2.69252 1.5016,-1.0097 3.36565,-1.52749 1.37215,-0.36245 4.14234,-0.69902 5.64394,-0.67313 8.31057,-1.60515 0.0259,-0.95792 0.0259,-1.21682 0,-2.84786 -1.32037,-4.01289 -1.78639,-1.57927 -5.30737,-1.57927 -3.28799,0 -4.86725,1.16504 -1.55338,1.13914 -2.30418,4.06467 l -4.55657,-0.62135 q 0.62135,-2.92553 2.04528,-4.71191 1.42392,-1.81228 4.11645,-2.77019 2.69252,-0.98381 6.2394,-0.98381 3.52098,0 5.7216,0.82847 2.20062,0.82847 3.23621,2.09706 1.03558,1.2427 1.44981,3.15853 0.23301,1.19092 0.23301,4.29768 l 0,6.21351 q 0,6.49829 0.28479,8.2329 0.31067,1.70871 1.19092,3.28798 l -4.86725,0 q -0.72491,-1.44982 -0.93203,-3.39154 z m -0.38834,-10.40763 q -2.53718,1.03559 -7.61155,1.7605 -2.87375,0.41423 -4.06467,0.93202 -1.19092,0.5178 -1.83816,1.52749 -0.64725,0.98381 -0.64725,2.20062 0,1.86405 1.39804,3.10675 1.42393,1.24271 4.14234,1.24271 2.69253,0 4.78958,-1.16504 2.09706,-1.19092 3.08087,-3.2362 0.7508,-1.57927 0.7508,-4.66013 l 0,-1.70872 z"
         style=""
         id="path4183" />
      <path
         d="m 481.28301,729.92668 4.58247,0.59546 q -0.7508,4.7378 -3.85756,7.43032 -3.08086,2.66663 -7.58566,2.66663 -5.64393,0 -9.08725,-3.67632 -3.41744,-3.70222 -3.41744,-10.58886 0,-4.45302 1.47571,-7.79278 1.47571,-3.33976 4.47891,-4.99669 3.02908,-1.68283 6.57596,-1.68283 4.47891,0 7.32677,2.27829 2.84786,2.25239 3.65043,6.42062 l -4.53068,0.69902 q -0.64724,-2.77019 -2.30418,-4.16823 -1.63104,-1.39804 -3.96111,-1.39804 -3.52099,0 -5.72161,2.53719 -2.20061,2.51129 -2.20061,7.974 0,5.54038 2.12294,8.05167 2.12295,2.5113 5.54038,2.5113 2.7443,0 4.58247,-1.68283 1.83816,-1.68282 2.33006,-5.17792 z"
         style=""
         id="path4185" />
      <path
         d="m 489.87838,739.99774 0,-37.95419 4.66013,0 0,21.64373 11.02898,-11.18432 6.03228,0 -10.51118,10.20051 11.57266,17.29427 -5.7475,0 -9.08726,-14.05806 -3.28798,3.15853 0,10.89953 -4.66013,0 z"
         style=""
         id="path4188" />
      <path
         d="m 516.38934,707.40271 0,-5.35916 4.66013,0 0,5.35916 -4.66013,0 z m 0,32.59503 0,-27.49478 4.66013,0 0,27.49478 -4.66013,0 z"
         style=""
         id="path4190" />
      <path
         d="m 528.16911,739.99774 0,-27.49478 4.19412,0 0,3.90933 q 3.02909,-4.53068 8.75069,-4.53068 2.48541,0 4.55658,0.90614 2.09706,0.88024 3.13264,2.33006 1.03559,1.44982 1.44982,3.44332 0.2589,1.29448 0.2589,4.53069 l 0,16.90592 -4.66014,0 0,-16.7247 q 0,-2.84785 -0.54368,-4.24589 -0.54368,-1.42393 -1.94172,-2.2524 -1.37215,-0.85436 -3.2362,-0.85436 -2.97731,0 -5.15204,1.88994 -2.14884,1.88995 -2.14884,7.17143 l 0,15.01598 -4.66013,0 z"
         style=""
         id="path4192" />
      <path
         d="m 556.82894,742.27603 4.53069,0.67313 q 0.28478,2.09706 1.57926,3.05497 1.73461,1.29449 4.73781,1.29449 3.2362,0 4.99669,-1.29449 1.7605,-1.29448 2.38185,-3.62454 0.36245,-1.42393 0.33656,-5.98051 -3.05497,3.59866 -7.61155,3.59866 -5.66982,0 -8.77658,-4.09056 -3.10675,-4.09056 -3.10675,-9.81217 0,-3.93522 1.42393,-7.24909 1.42393,-3.33976 4.11645,-5.15204 2.71841,-1.81227 6.36884,-1.81227 4.86725,0 8.02579,3.93522 l 0,-3.31387 4.29768,0 0,23.76668 q 0,6.42062 -1.32038,9.08725 -1.29448,2.69252 -4.14234,4.2459 -2.82196,1.55338 -6.9643,1.55338 -4.91903,0 -7.94812,-2.22651 -3.02908,-2.20062 -2.92553,-6.65363 z m 3.85756,-16.51758 q 0,5.41093 2.14884,7.89633 2.14884,2.48541 5.38504,2.48541 3.21031,0 5.38504,-2.45952 2.17473,-2.4854 2.17473,-7.76688 0,-5.04848 -2.2524,-7.61155 -2.22651,-2.56308 -5.38504,-2.56308 -3.10676,0 -5.28148,2.53719 -2.17473,2.51129 -2.17473,7.4821 z"
         style=""
         id="path4194" />
    </g>
    <path
       style="fill:#000064;fill-opacity:1;fill-rule:evenodd;stroke:#000064;stroke-width:40;stroke-linecap:butt;stroke-linejoin:miter;stroke-miterlimit:4;stroke-dasharray:none;stroke-opacity:1"
       d="M 220.81533,498.0729 C 141.26638,379.86178 141.26638,379.86178 141.26638,379.86178"
       id="path4189-6-25"
       inkscape:connector-curvature="0"
       inkscape:export-xdpi="211.80382"
       inkscape:export-ydpi="211.80382" />
    <path
       style="fill:#000064;fill-opacity:1;fill-rule:evenodd;stroke:#000064;stroke-width:40;stroke-linecap:butt;stroke-linejoin:miter;stroke-miterlimit:4;stroke-dasharray:none;stroke-opacity:1"
       d="m 168.46864,496.58458 c -50.0891,-71.90762 -50.0891,-71.90762 -50.0891,-71.90762"
       id="path4189-6-2-9"
       inkscape:connector-curvature="0"
       inkscape:export-xdpi="211.80382"
       inkscape:export-ydpi="211.80382" />
  </g>
</svg>
